<svg xmlns="http://www.w3.org/2000/svg" viewBox="0 0 48 48" id="tree">
  <path fill="#689F38" d="M3.6 13.8c0-1.1.2-2.2.6-3.3l.1-.2c.4-1 .8-1.9 1.4-2.7.1-.1.1-.2.2-.3C6.4 6.6 7 6 7.6 5.4c.4-.3.8-.6 1.2-.8 1.3-.8 2.8-1.4 4.3-1.6.2 0 .4 0 .5-.1 1.6-.2 3.3 0 4.9.6.4.1.7.3 1.1.5.1 0 .1.1.2.1.6.3 1.2.7 1.8 1.1.3.2.5.4.8.7.1.1.3.2.4.4.3.3.6.6.8 1 .1.1.2.3.3.4l.4-.4c.1-.1.3-.2.4-.4l.9-.6c.3-.2.7-.3 1-.4.4-.1.7-.2 1.1-.3.2 0 .4-.1.6-.1h1.2c.3 0 .5.1.7.1.3.1.6.1.9.3.3.1.6.3.9.4.2.1.5.3.7.4.2.1.3.2.5.3.3.2.5.5.8.7.1.1.2.2.3.4.3.4.6.8.8 1.2.1.2.2.4.2.5.6 1.5.7 3.3.1 5-.2.4-.3.8-.6 1.2-.1.2-.2.4-.4.5-.1.2-.2.3-.4.5.3.3.7.7 1 1.1.3.4.5.8.8 1.2.2.4.4.9.6 1.3.5 1.5.6 3.2.3 4.8-.1.4-.2.8-.3 1.1-.3.8-.7 1.5-1.1 2.2-2.3 3.2-6.5 4.6-10.4 3.2-.8-.3-1.5-.7-2.1-1.1-.2-.1-.3-.2-.5-.4-.4-.3-.8-.7-1.1-1.1-.2-.2-.3-.4-.5-.6-.2-.3-.4-.6-.6-1-.1-.2-.2-.3-.3-.5-.2-.4-.3-.7-.4-1.1-.2-.7-.3-1.3-.4-2-.8.3-1.7.6-2.5.7-.3.1-.6.1-.9.1H15c-1.4.1-2.8-.1-4.2-.6-4.5-1.5-7.3-5.9-7.2-10.5z"></path>
  <path fill="#5D4037" d="M28.3 34.2c-1.2 0-2.4-.2-3.5-.6-.9-.3-1.7-.8-2.5-1.3-.2-.1-.4-.3-.6-.5-.5-.4-.9-.8-1.2-1.2-.2-.2-.4-.4-.6-.7-.3-.3-.5-.7-.7-1.1l-.2-.6c-.2-.4-.3-.8-.5-1.3-.1-.4-.2-.7-.3-1.1-.5.2-1.1.3-1.6.4-.3.1-.6.1-.9.1h-1.2c-1.4 0-2.9-.3-4.2-.7-5.1-1.8-8.4-6.6-8.3-12 0-1.3.2-2.5.6-3.7l.1-.3c.4-1.1.9-2.1 1.5-3 .1-.2.2-.3.3-.4.5-.7 1.2-1.4 1.9-2 .5-.4.9-.7 1.3-.9 1.5-.9 3.1-1.5 4.8-1.8.2 0 .4 0 .6-.1 1.8-.2 3.7 0 5.5.7.4.2.8.3 1.2.5.1 0 .1.1.2.1.5.2.8.5 1.1.7l.9.6c.3.3.6.5.9.8l.4.4c.2.2.4.4.6.7l.1-.1c.4-.3.7-.5 1.1-.7.4-.2.8-.4 1.2-.5.5-.2.9-.3 1.4-.3.2 0 .5-.1.7-.1H29.9c.3 0 .6.1.9.2.3 0 .6.1 1 .3.3.1.7.3 1 .4.3.2.6.4.9.5.1.1.3.2.5.4l.9.9.1.1.3.3c.4.5.7.9.9 1.4.1.2.2.5.3.7.7 1.9.7 3.9.1 5.8-.2.5-.4.9-.6 1.4-.1.2-.2.3-.3.5.2.2.3.4.5.6.3.4.6.9.9 1.4.2.4.4.8.6 1.4.6 1.8.7 3.7.3 5.6-.1.4-.2.9-.4 1.3-.3.9-.8 1.7-1.3 2.5-1.7 2.6-4.9 4.3-8.2 4.3zm-9.2-10.7c.2 0 .4 0 .5.1.3.2.5.5.5.8 0 .6.2 1.2.4 1.9.1.3.2.7.4 1l.2.5.6.9c.2.2.3.4.5.6.3.3.6.7 1 1 .2.1.3.2.4.3.6.4 1.3.8 2 1.1.9.3 1.8.5 2.8.5 2.7 0 5.2-1.3 6.8-3.5.4-.6.8-1.2 1-2 .1-.4.2-.7.3-1 .3-1.5.2-3.1-.2-4.5-.2-.5-.3-.8-.5-1.2-.2-.4-.5-.8-.7-1.1-.3-.4-.6-.7-.9-1-.4-.4-.4-1 0-1.4.1-.1.2-.3.3-.4.1-.2.2-.3.3-.5.2-.3.4-.7.5-1 .5-1.4.5-3 0-4.4-.3-.3-.3-.5-.4-.6-.2-.3-.4-.7-.7-1.1-.1-.1-.1-.2-.2-.2l-.1-.1c-.2-.2-.4-.4-.7-.6-.1-.1-.2-.2-.4-.3-.3-.2-.5-.3-.7-.4-.2-.1-.5-.2-.8-.3-.3-.1-.5-.2-.8-.2-.3-.1-.4-.1-.6-.1h-1.1c-.3 0-.5 0-.6.1-.3.1-.7.1-1 .3-.3.1-.6.3-.9.4-.3-.1-.6.1-.8.3l-.1.1c-.1.1-.2.1-.3.2-.1.1-.3.2-.4.3-.2.2-.5.3-.8.3-.3 0-.6-.2-.7-.4-.1-.1-.2-.2-.2-.3l-.1-.1c-.2-.3-.5-.6-.7-.9l-.1-.1-.3-.3c-.3-.2-.6-.4-.8-.6-.2-.2-.4-.3-.7-.5-.3-.2-.6-.4-1-.6l-.1-.1c-.4-.2-.7-.3-1.1-.5-1.5-.5-3.1-.7-4.6-.6-.2 0-.4 0-.5.1-1.4.3-2.8.8-4.1 1.6-.3.2-.7.4-1.1.8-.6.5-1.2 1.1-1.6 1.7l-.1.1-.1.1s0 .1-.1.1c-.6.8-1 1.6-1.3 2.5l-.1.2c-.3 1-.5 2-.5 3.1-.1 4.5 2.7 8.6 6.9 10.2 1.3.5 2.6.7 4 .6h.6c.3 0 .5-.1.8-.1.8-.1 1.6-.4 2.4-.7.1-.1.2-.1.4-.1z"></path>
  <path fill="#FBC02D" d="m17.3 21.8 3.9 6.1c.6.9 1.7 1.1 2.6.5l9.7-6.6 1.8 2-9.4 8.6c-.5.5-.8 1.1-.9 1.8-.3 2-.6 6.5 1.3 9.9L15.6 44 18 33.7c.1-.3.1-.6.1-.9l-.8-11z"></path>
  <path fill="#5D4037" d="M26.1 45.2 15.6 45c-.3 0-.6-.1-.8-.4s-.3-.5-.2-.8L17 33.5c0-.2.1-.4 0-.6l-.8-11c0-.5.2-.9.7-1s.9 0 1.2.4l3.9 6.1c.2.4.8.5 1.2.3l9.7-6.6c.4-.3 1-.2 1.3.2l1.8 2c.4.4.3 1-.1 1.4l-9.4 8.6c-.3.3-.6.7-.6 1.2-.2 1.7-.6 6 1.1 9.2.1.2.2.4.2.6-.1.4-.5.9-1.1.9zm-9.2-2.1 7.7.1c-1.2-3.3-1-7-.7-9 .1-.9.6-1.8 1.2-2.4l8.6-7.9-.5-.6-8.9 6.1c-.5.3-1 .5-1.6.5-1 0-1.9-.5-2.4-1.3l-1.7-2.7.5 7c0 .4 0 .8-.1 1.2l-2.1 9z"></path>
  <circle cx="6.4" cy="31.3" r="1.6" fill="#7CB342"></circle>
  <path fill="#5D4037" d="M6.4 33.3c-1.1 0-2.1-.9-2.1-2.1s.9-2.1 2.1-2.1c1.1 0 2.1.9 2.1 2.1 0 .3-.2.5-.5.5s-.5-.2-.5-.5c0-.6-.5-1.1-1.1-1.1-.6 0-1.1.5-1.1 1.1s.5 1.1 1.1 1.1c.3 0 .5.2.5.5s-.2.5-.5.5z"></path>
  <circle cx="7.6" cy="32.4" r=".5" fill="#5D4037"></circle>
  <circle cx="31.2" cy="37.9" r="1.6" fill="#7CB342"></circle>
  <path fill="#5D4037" d="M31.2 40c-1.1 0-2.1-.9-2.1-2.1 0-1.1.9-2.1 2.1-2.1 1.1 0 2.1.9 2.1 2.1 0 .3-.2.5-.5.5s-.5-.2-.5-.5c0-.6-.5-1.1-1.1-1.1s-1.1.5-1.1 1.1.5 1.1 1.1 1.1c.3 0 .5.2.5.5s-.2.5-.5.5z"></path>
  <circle cx="32.4" cy="39" r=".5" fill="#5D4037"></circle>
  <circle cx="11.2" cy="30.9" r="1" fill="#7CB342"></circle>
  <circle cx="38.4" cy="37.3" r="1" fill="#7CB342"></circle>
  <path fill="#FFA000" d="m35 25.3-9.1 7.8-1.5 5.5-2-.2v-5.6c0-.4.2-.7.5-1l9.8-8.5 2.3 2z"></path>
  <path fill="#5D4037" d="M26.1 45.2 15.6 45c-.3 0-.6-.1-.8-.4s-.3-.5-.2-.8L17 33.5c0-.2.1-.4 0-.6l-.8-11c0-.5.2-.9.7-1s.9 0 1.2.4l3.9 6.1c.2.4.8.5 1.2.3l9.7-6.6c.4-.3 1-.2 1.3.2l1.8 2c.4.4.3 1-.1 1.4l-9.4 8.6c-.3.3-.6.7-.6 1.2-.2 1.7-.6 6 1.1 9.2.1.2.2.4.2.6-.1.4-.5.9-1.1.9zm-9.2-2.1 7.7.1c-1.2-3.3-1-7-.7-9 .1-.9.6-1.8 1.2-2.4l8.6-7.9-.5-.6-8.9 6.1c-.5.3-1 .5-1.6.5-1 0-1.9-.5-2.4-1.3l-1.7-2.7.5 7c0 .4 0 .8-.1 1.2l-2.1 9z"></path>
  <path fill="#8BC34A" d="M19 26.5c-1 1.7-2.8 2.7-4.7 2.7-.8 0-1.5-.2-2.3-.5-.1 0-.2-.1-.3-.1-1-.6-1.7-1.4-2.2-2.4-1 .8-2.5.9-3.7.2-1.6-.9-2.2-3-1.2-4.6.2-.4.5-.7.8-.9-1-1.3-1.1-3.2-.3-4.7.6-1.1 1.6-1.8 2.8-2.1 1-.2 2.1-.1 3 .5 1.5.9 2.3 2.5 2.1 4.2.5-.1 1.1-.2 1.6-.1.8 0 1.5.3 2.2.7 1.5.9 2.5 2.4 2.6 4 .3 1 .1 2.1-.4 3.1z"></path>
  <path fill="#689F38" d="M19 26.5c-1 1.7-2.8 2.7-4.7 2.7-.8 0-1.5-.2-2.3-.5 2.2-1.5 5.6-4.7 5-9.3 1.5.9 2.5 2.4 2.6 4 .1 1-.1 2.1-.6 3.1z"></path>
  <path fill="#5D4037" d="M14.3 30.2c-1.1 0-2.2-.3-3.1-.8-.4-.3-.8-.5-1.2-.9-.3-.3-.6-.7-.9-1-.9.4-1.9.4-2.8.1-.3-.1-.6-.2-1-.4-.3-.2-.6-.4-.9-.7-1.4-1.4-1.7-3.5-.7-5.3.1-.2.3-.4.4-.6-.8-1.6-.8-3.5.1-5C5.2 14 7 13 8.9 13c.9 0 1.8.2 2.6.7 1.4.8 2.4 2.3 2.6 3.9 1.2-.1 2.3.2 3.4.8 2.9 1.7 4 5.5 2.4 8.5l-.1.1c-1.1 2-3.2 3.2-5.5 3.2zm-4.8-5.1h.2c.3.1.5.3.7.5.2.5.6 1 1 1.3.2.2.5.4.8.6.6.4 1.4.6 2.1.6 1.5 0 3-.8 3.7-2.2l.1-.1c1.1-2 .4-4.6-1.7-5.8-.9-.5-2.1-.7-3.1-.4-.3.1-.6 0-.9-.2-.2-.2-.4-.5-.3-.9.1-1.3-.5-2.5-1.6-3.2-.5-.1-1-.3-1.6-.3-1.2 0-2.3.6-2.8 1.6-.6 1.1-.6 2.5.2 3.6.3.4.2 1-.2 1.4-.2.2-.4.4-.6.7-.5.9-.4 2.1.4 2.8.1.1.3.3.5.4.2.1.3.2.5.2.7.2 1.5.1 2.1-.4.1-.1.3-.2.5-.2z"></path>
  <path fill="#C5E1A5" d="M7.7 23.2c-.2 0-.3-.1-.5-.2-.3-.3-.3-.7 0-.9l2.5-2.5c.3-.3.7-.3.9 0s.3.7 0 .9L8.2 23c-.1.2-.3.2-.5.2zm1.9 1.1c-.2 0-.3-.1-.5-.2-.3-.3-.3-.7 0-.9l2.5-2.5c.3-.3.7-.3.9 0s.3.7 0 .9L10 24.1c-.1.1-.3.2-.4.2z"></path>
  <path fill="#8BC34A" d="M43.7 15.9c-.3.4-.7.7-1 1-.2.1-.4.3-.6.4-.1.1-.2.1-.3.2 1.5 1.3 1.6 3.7-.1 5-.6.5-1.2.7-1.9.7h-.3c-.5 0-.9-.2-1.3-.4s-.7-.5-1-.8c-.1.1-.2.1-.3.2-.1.2-.2.4-.3.5l-.3.3c-1.1 1.1-2.7 1.3-4 .7-2.1 1.5-5 1.5-7-.2-2.4-1.9-2.7-5.4-.9-7.9.1-.1.1-.2.2-.2l.6-.6c-.2-.7-.3-1.4-.3-2.1 0-.3.1-.6.1-.9.2-.7.4-1.3.8-1.9.1-.2.2-.4.4-.5.2-.2.3-.4.5-.6l.4-.4c.1-.1.3-.2.4-.3 1.8-1.2 4.2-1.3 6.1-.2.4.2.7.5 1 .8.2-.1.3-.2.5-.3 2-2.4 5.5-2.7 7.9-.7 2.4 2 2.7 5.7.7 8.2z"></path>
  <path fill="#5D4037" d="M28.7 25.7c-1.5 0-3-.5-4.2-1.5-2.8-2.3-3.2-6.3-1-9.2l.2-.3.3-.3c-.1-.6-.2-1.2-.2-1.9 0-.4.1-.7.1-1.1.2-.8.5-1.6.9-2.3.1-.2.3-.4.5-.6.2-.2.4-.4.6-.7.2-.2.4-.3.6-.5l.3-.3.1-.1c2.1-1.4 5-1.5 7.2-.2.2.1.4.3.6.4 1.3-1.2 3-1.9 4.7-1.9 1.6 0 3.1.5 4.3 1.5 1.3 1.3 2.1 3 2.3 4.8.2 1.8-.4 3.7-1.6 5.1-.4.4-.7.8-1.2 1.1.4.7.6 1.4.6 2.2 0 1.3-.6 2.5-1.6 3.3-.7.6-1.6.9-2.5 1h-.5c-.6 0-1.2-.2-1.7-.5-.2-.1-.3-.2-.5-.3l-.3.3c-1.1 1.1-3 1.6-4.6 1.1-.9.6-2.1.9-3.4.9zm2-17.7c-.9 0-1.9.3-2.7.8l-.3.3c-.2.1-.3.2-.4.3-.2.1-.3.3-.4.5-.1.2-.2.3-.3.5-.3.5-.5 1-.7 1.6 0 .2-.1.5-.1.8 0 .6 0 1.2.2 1.7.1.4 0 .8-.3 1-.2.2-.4.3-.5.5l-.2.2c-1.5 2.1-1.2 4.9.7 6.5.8.7 1.9 1.1 2.9 1.1s2-.3 2.8-.9c.3-.2.7-.3 1-.1.9.5 2.1.3 2.9-.5l.2-.2c.1-.1.1-.2.2-.3.1-.2.3-.4.5-.5.4-.3 1.1-.3 1.4.2.2.3.4.5.7.6l.9.3h.2c.5 0 .9-.2 1.3-.5.6-.5.9-1.1.9-1.8s-.3-1.3-.8-1.7c-.3-.2-.4-.5-.4-.9s.2-.6.5-.8l.3-.2c.1-.1.3-.2.4-.3.3-.2.6-.5.8-.8.9-1 1.3-2.3 1.1-3.6-.1-1.3-.7-2.4-1.7-3.2-.9-.7-1.9-1.1-3-1.1-1.3 0-2.6.6-3.6 1.5-.1.1-.2.2-.4.2-.1.1-.2.1-.3.2-.4.3-.9.2-1.3-.1.4-.3.1-.5-.2-.7-.7-.4-1.5-.6-2.3-.6z"></path>
  <path fill="#C5E1A5" d="M28.2 19.3c-.3 0-.5-.1-.7-.3-.4-.4-.4-1 0-1.4l3.8-3.8c.4-.4 1-.4 1.4 0 .4.4.4 1 0 1.4L28.9 19c-.2.2-.4.3-.7.3zM31.1 21c-.3 0-.5-.1-.7-.3-.4-.4-.4-1 0-1.4l3.8-3.8c.4-.4 1-.4 1.4 0 .4.4.4 1 0 1.4l-3.8 3.8c-.2.2-.5.3-.7.3z"></path>
  <path fill="#A1887F" d="M33.1 43.3s-2.9-.2-2.9-.3c0-.5-.6-1-1.5-1.4-.6-1.3-3.2-2.3-6.4-2.3-2.7 0-5 .7-6 1.8-.5.5-1.1.8-1.8.8-1.9 0-3.4.6-3.5 1.4h-.3c-.7 0-1.2.4-1.2.9s.5.9 1.2.9h22.4c.7 0 1.2-.4 1.2-.9s-.5-.9-1.2-.9z"></path>
  <path fill="#5D4037" d="M33.1 46.1H10.7c-1.2 0-2.2-.8-2.2-1.9 0-1 .8-1.7 1.8-1.9.8-1 2.5-1.5 4.2-1.5.5 0 .9-.2 1.1-.4 1.2-1.3 3.8-2.1 6.7-2.1 2.8 0 5.9.8 7.1 2.5.9.4 1.3.8 1.5 1.3.5.1 1.4.1 2.2.2 1.2 0 2.1.8 2.1 1.9.1 1-.9 1.9-2.1 1.9zm-21.3-2h18.6c-1-.2-1.2-.4-1.2-1.1 0 0-.2-.2-.8-.4l-.4-.2-.2-.4c-.3-.7-2.4-1.7-5.4-1.7-2.7 0-4.6.8-5.2 1.5-.6.7-1.5 1.1-2.6 1.1-1.6 0-2.5.5-2.6.7l-.2.5z"></path>
  <path fill="#689F38" d="M43.7 15.9c-.3.4-.7.7-1 1-.2.1-.4.3-.6.4-.1.1-.2.1-.3.2 1.5 1.3 1.6 3.7-.1 5-1.2-.7-1.8 1.2-3 .5.2-1.5 1-4.4.8-5.1-.1-.3-.1-.5 0-.8 3.4-8.5-2.1-6.3-4.4-5.1-.5.3-1.1.1-1.4-.3-1.8-2.4-4.4-1.9-6.1-1.2-.8.3-1.6-.4-1.5-1.2v-.1c.2-.2.3-.4.5-.6l.4-.4c.1-.1.3-.2.4-.3 1.8-1.2 4.2-1.3 6.1-.2.4.2.7.5 1 .8.2-.1.3-.2.5-.3 2.1-2.2 5.6-2.5 8-.5 2.4 2 2.7 5.7.7 8.2z"></path>
  <path fill="#5D4037" d="M28.7 25.7c-1.5 0-3-.5-4.2-1.5-2.8-2.3-3.2-6.3-1-9.2l.2-.3.3-.3c-.1-.6-.2-1.2-.2-1.9 0-.4.1-.7.1-1.1.2-.8.5-1.6.9-2.3.3-.5.6-.9 1-1.3.2-.2.4-.3.6-.5 2-1.6 5.3-1.9 7.6-.5.2.1.4.3.6.4 1.3-1.2 3-1.9 4.7-1.9 1.6 0 3.1.5 4.3 1.5C45 8 45.8 9.7 46 11.5c.2 1.8-.4 3.7-1.6 5.1-.4.4-.7.8-1.2 1.1.4.7.6 1.4.6 2.2 0 1.3-.6 2.5-1.6 3.3-1.3 1-3.2 1.2-4.7.5-.2-.1-.3-.2-.5-.3l-.3.3c-1.1 1.1-3 1.6-4.6 1.1-.9.6-2.1.9-3.4.9zM30.6 8c-1.1 0-2.2.4-3 1.1-.2.1-.3.2-.4.3-.3.3-.5.6-.7.9-.3.5-.5 1-.7 1.6 0 .2-.1.5-.1.8 0 .6 0 1.2.2 1.7.1.4 0 .8-.3 1-.2.2-.4.3-.5.5l-.2.2c-1.5 2.1-1.2 4.9.7 6.5.8.7 1.9 1.1 2.9 1.1s2-.3 2.8-.9c.3-.2.7-.3 1-.1.9.5 2.1.3 2.9-.5l.2-.2c.1-.1.1-.2.2-.3.1-.2.3-.4.5-.5.4-.3 1.1-.3 1.4.2.2.3.4.5.7.6.8.4 1.8.3 2.5-.2.6-.5.9-1.1.9-1.8s-.3-1.3-.8-1.7c-.3-.2-.4-.5-.4-.9s.2-.6.5-.8l.3-.2c.1-.1.3-.2.4-.3.3-.2.6-.5.8-.8.9-1 1.3-2.3 1.1-3.6-.1-1.3-.7-2.4-1.7-3.2-.9-.7-1.9-1.1-3-1.1-1.3 0-2.6.6-3.6 1.5-.1.1-.2.2-.4.2-.1.1-.2.1-.3.2-.4.3-.9.2-1.3-.1.4-.2.1-.4-.2-.6-.7-.4-1.5-.6-2.4-.6z"></path>
</svg>
