<svg xmlns="http://www.w3.org/2000/svg" xmlns:xlink="http://www.w3.org/1999/xlink" enable-background="new 0 0 2500 2500" viewBox="0 0 2500 2500" id="pine">
  <defs>
    <rect id="a" width="2500" height="2500"></rect>
  </defs>
  <clipPath id="b">
    <use xlink:href="#a" overflow="visible"></use>
  </clipPath>
  <g clip-path="url(#b)">
    <path fill="#500009" d="M1815,1272.6c29.2-27.7,52-62.4,66-101.7c25.5-71.3,18.5-150.1-19.5-216.4l-386.8-668
			c-47-81.6-131-130.2-224.7-130.2s-177.8,48.6-224.6,130L638.2,954.8c-37.7,66-44.7,144.7-19.2,216.1c14,39.3,36.8,74,66,101.7
			l-217.8,303.2c-57.5,79.3-65.7,182.5-21.4,269.5c44.5,87.3,133.3,141.5,231.7,141.5h280.7c-23.6,98.5-22.5,220.2-19.5,282.5
			c2,41.7,36.4,74.4,78,74.4h466.6c41.7,0,76.1-32.7,78-74.4c3-62.4,4.1-184-19.5-282.5h280.7c98.4,0,187.1-54.2,231.7-141.5
			c44.3-87.1,36.1-190.3-21.2-269.2L1815,1272.6z"></path>
    <path fill="#f6851f" d="M1093.6,2187.5c1.3-87.3,11.6-168.8,26.1-200.7h260.6c14.5,31.9,24.7,113.4,26.1,200.7H1093.6z"></path>
    <path fill="#237d26" d="M1914.9,1774.4c-17.9,35.2-52.5,56.2-92.4,56.2h-423.4h-298.3H677.5c-39.9,0-74.5-21.1-92.4-56.2
			c-17.8-34.9-14.6-74.8,8.8-107.1l265.6-369.7c14.2-19.7,18.3-44.8,11.4-68c-7-23.2-24.3-41.9-46.9-50.5
			c-26.6-10.2-47.6-32.3-57.8-60.7c-5.9-16.6-12.8-50,7.5-85.6l387-668.3c19-33,51.6-51.9,89.4-51.9s70.3,18.9,89.5,52l386.7,667.8
			c20.6,36,13.7,69.4,7.7,86c-10.1,28.4-31.2,50.5-57.8,60.7c-22.6,8.6-39.9,27.3-46.9,50.5c-6.9,23.2-2.7,48.3,11.4,68l265.8,370.1
			C1929.6,1699.5,1932.8,1739.4,1914.9,1774.4z"></path>
    <path fill="#80c41c" d="M1430.5,733.6c-25,490.6-139.8,1037.5-725,1014.8c-45.3-1.6-89.8-10.9-131.3-28.1
			c0.8-18.7,7.8-37.5,19.5-53.1l265.6-369.5c14.1-19.5,18.7-44.5,11.7-68c-7-23.4-24.2-42.2-46.9-50.8c-26.6-10.2-47.7-32-57.8-60.9
			c-6.3-16.4-13.3-50,7-85.2l387.5-668.7c18.7-32.8,51.6-51.6,89.1-51.6s70.3,18.7,89.8,52.3l71.1,123.4
			C1427.3,562.5,1435.2,643.7,1430.5,733.6z"></path>
  </g>
</svg>
